# AST/ASF file generated using VICON BodyLanguage
# -----------------------------------------------
:version 1.10
:name VICON
:units
  mass 1.0
  length 0.45
  angle deg
:documentation
   .ast/.asf automatically generated from VICON data using
   VICON BodyBuilder and BodyLanguage model FoxedUp or BRILLIANT.MOD
:root
   order TX TY TZ RX RY RZ
   axis XYZ
   position 0 0 0  
   orientation 0 0 0 
:bonedata
  begin
     id 1 
     name lhipjoint
     direction 0.584852 -0.759097 0.285867 
     length 2.43633 
     axis 0 0 0  XYZ
  end
  begin
     id 2 
     name lfemur
     direction 0.34202 -0.939693 0  
     length 7.14704  
     axis 0 0 20  XYZ
    dof rx ry rz
    limits (-160.0 20.0)
           (-70.0 70.0)
           (-60.0 70.0)
  end
  begin
     id 3 
     name ltibia
     direction 0.342022 -0.939692 0   
     length 7.68483   
     axis 0 0 20   XYZ
    dof rx
    limits (-10.0 170.0)
  end
  begin
     id 4 
     name lfoot
     direction 0.0999605 -0.274639 0.956337   
     length 2.40452   
     axis -90 7.62852e-016 20   XYZ
    dof rx rz
    limits (-45.0 90.0)
           (-70.0 20.0)
  end
  begin
     id 5 
     name ltoes
     direction 1.53468e-011 -4.21881e-011 1   
     length 1.19837   
     axis -90 7.62852e-016 20   XYZ
    dof rx
    limits (-90.0 20.0)
  end
  begin
     id 6 
     name rhipjoint
     direction -0.569886 -0.769002 0.289597   
     length 2.40495  
     axis 0 0 0  XYZ 
  end
  begin
     id 7 
     name rfemur
     direction -0.34202 -0.939693 0   
     length 7.45086   
     axis 0 0 -20   XYZ
    dof rx ry rz
    limits (-160.0 20.0)
           (-70.0 70.0)
           (-70.0 60.0)
  end
  begin
     id 8 
     name rtibia
     direction -0.34202 -0.939693 0   
     length 7.76831   
     axis 0 0 -20   XYZ
    dof rx
    limits (-10.0 170.0)
 end
 begin
     id 9 
     name rfoot
     direction -0.0798572 -0.219406 0.97236   
     length 2.35911  
     axis -90 -7.62852e-016 -20   XYZ
    dof rx rz
    limits (-45.0 90.0)
           (-20.0 70.0)
  end
  begin
     id 10 
     name rtoes
     direction -1.53469e-011 -4.21728e-011 1   
     length 1.18261   
     axis -90 -7.62852e-016 -20   XYZ
    dof rx
    limits (-90.0 20.0)
  end
  begin
     id 11 
     name lowerback
     direction 0.0242088 0.999437 0.0232389   
     length 2.1561   
     axis 0 0 0   XYZ
    dof rx ry rz
    limits (-20.0 45.0)
           (-30.0 30.0)
           (-30.0 30.0)
  end
  begin
     id 12 
     name upperback
     direction -0.0356893 0.999013 -0.0264323   
     length 2.14431   
     axis 0 0 0   XYZ
    dof rx ry rz
    limits (-20.0 45.0)
           (-30.0 30.0)
           (-30.0 30.0)
  end
  begin
     id 13 
     name thorax
     direction -0.0472163 0.998194 -0.0371284   
     length 2.16169   
     axis 0 0 0   XYZ
    dof rx ry rz
    limits (-20.0 45.0)
           (-30.0 30.0)
           (-30.0 30.0)
  end
  begin
     id 14 
     name lowerneck
     direction 0.00863244 0.999921 0.00911972   
     length 1.58651   
     axis 0 0 0   XYZ
    dof rx ry rz
    limits (-20.0 45.0)
           (-30.0 30.0)
           (-30.0 30.0)
  end
  begin
     id 15 
     name upperneck
     direction 0.149523 0.979068 -0.138086   
     length 1.57486   
     axis 0 0 0   XYZ
    dof rx ry rz
    limits (-20.0 45.0)
           (-30.0 30.0)
           (-30.0 30.0)
  end
  begin
     id 16
     name head
     direction 0.0445219 0.997708 -0.0509576  
     length 1.6019  
     axis 0 0 0   XYZ
    dof rx ry rz
    limits (-20.0 45.0)
           (-30.0 30.0)
           (-30.0 30.0)
  end
  begin
     id 17 
     name lclavicle
     direction 0.911271 0.381667 -0.154644  
     length 3.80848  
     axis 0 0 0   XYZ
    dof ry rz
    limits (-20.0 10.0)
           (0.0 20.0)
  end
  begin
     id 18 
     name lhumerus
     direction 1 -4.49003e-011 2.1308e-027   
     length 5.19069   
     axis 180 -30 -90   XYZ
    dof rx ry rz
    limits (-60.0 90.0)
           (-90.0 90.0)
           (-90.0 90.0)
  end
  begin
     id 19
     name lradius
     direction 1 -4.48914e-011 4.01554e-027   
     length 3.30016   
     axis 180 -30 -90   XYZ
    dof rx
    limits (-10.0 170.0)
  end
  begin
     id 20
     name lwrist
     direction 1 -4.49003e-011 1.1934e-026   
     length 1.65008   
     axis -8.46377e-015 90 90   XYZ
    dof ry
    limits (-180.0 0.0)
 end
  begin
     id 21 
     name lhand
     direction 1 -4.49034e-011 2.38659e-026   
     length 0.707698   
     axis -1.52313e-014 90 90   XYZ
    dof rx rz
    limits (-90.0 90.0)
           (-45.0 45.0)
  end
  begin
     id 22 
     name lfingers
     direction 1 -4.48691e-011 4.77775e-026   
     length 0.570564   
     axis -3.04623e-014 90 90   XYZ
    dof rx
    limits (0.0 90.0)
  end
  begin
     id 23
     name lthumb
     direction 0.707107 -6.34832e-011 0.707107   
     length 0.819219   
     axis -90 45 -1.62303e-014   XYZ
    dof rx rz
    limits (-45.0 45.0)
           (-45.0 45.0)
  end
  begin
     id 24 
     name rclavicle
     direction -0.815579 0.573708 -0.0754329   
     length 3.54371  
     axis 0 0 0   XYZ 
    dof ry rz
    limits (-10.0 20.0)
           (-20.0 0.0)
  end
  begin
     id 25 
     name rhumerus
     direction -1 -4.48956e-011 3.05351e-028  
     length 5.23924   
     axis 180 30 90   XYZ
    dof rx ry rz
    limits (-90.0 60.0)
           (-90.0 90.0)
           (-90.0 90.0)
  end
  begin
     id 26 
     name rradius
     direction -1 -4.49013e-011 3.53849e-027   
     length 3.32953   
     axis 180 30 90   XYZ
    dof rx
    limits (-10.0 170.0)
  end
  begin
     id 27 
     name rwrist
     direction -1 -4.48901e-011 1.19374e-026   
     length 1.66477   
     axis -8.46377e-015 -90 -90   XYZ
    dof ry
    limits (-180.0 0.0)
  end
  begin
     id 28
     name rhand
     direction -1 -4.48877e-011 2.38764e-026   
     length 0.607414   
     axis -1.52313e-014 -90 -90   XYZ
    dof rx rz
    limits (-90.0 90.0)
           (-45.0 45.0)
  end
  begin
     id 29
     name rfingers
     direction -1 -4.48882e-011 4.77521e-026   
     length 0.489712   
     axis -3.04623e-014 -90 -90   XYZ
    dof rx
    limits (0.0 90.0)
  end
  begin
     id 30
     name rthumb
     direction -0.707107 -6.34974e-011 0.707107   
     length 0.703132   
     axis -90 -45 1.62303e-014   XYZ
    dof rx rz
    limits (-45.0 45.0)
           (-45.0 45.0)
  end
:hierarchy
  begin
    root lhipjoint rhipjoint lowerback
    lhipjoint lfemur
    lfemur ltibia
    ltibia lfoot
    lfoot ltoes
    rhipjoint rfemur
    rfemur rtibia
    rtibia rfoot
    rfoot rtoes
    lowerback upperback
    upperback thorax
    thorax lowerneck lclavicle rclavicle
    lowerneck upperneck
    upperneck head
    lclavicle lhumerus
    lhumerus lradius
    lradius lwrist
    lwrist lhand lthumb
    lhand lfingers
    rclavicle rhumerus
    rhumerus rradius
    rradius rwrist
    rwrist rhand rthumb
    rhand rfingers
  end

#!OML:ASF E:\VariousWalksJay\Project 1\Capture day 1\Session 1\Actor2.ASF
:FULLY-SPECIFIED
:DEGREES
681
root 9.06097 16.7975 41.2821 175.087 -52.8145 -171.956
lowerback -0.83594 0.600889 5.63981
upperback 4.53416 0.510882 -0.426978
thorax 5.24345 0.458173 -3.58247
lowerneck -8.81383 0.378669 0.741362
upperneck 6.12485 -0.462581 8.45323
head 3.62742 0.081371 2.67705
rclavicle -4.45278e-014 1.55052e-014
rhumerus -41.7099 5.9972 -86.4357
rradius 42.2139
rwrist -0.442248
rhand -11.0772 -2.46427
rfingers 7.12502
rthumb 14.9461 -31.905
lclavicle -4.45278e-014 1.55052e-014
lhumerus -32.3375 -13.6749 82.6507
lradius 32.6562
lwrist 7.77851
lhand -6.63648 -9.70447
lfingers 7.12502
lthumb 19.2204 19.3657
rfemur -9.79409 -5.2486 25.2923
rtibia 32.3747
rfoot -24.8102 -17.7964
rtoes -3.73127
lfemur -10.0203 3.47061 -14.127
ltibia 29.5998
lfoot -20.2124 0.688179
ltoes -6.35176
682
root 9.06187 16.7961 41.2783 174.982 -52.8068 -171.867
lowerback -0.81684 0.621917 5.63033
upperback 4.54003 0.538662 -0.403164
thorax 5.24115 0.47076 -3.5508
lowerneck -8.83426 0.35571 0.662472
upperneck 6.13993 -0.493669 8.53463
head 3.64011 0.0678083 2.71894
rclavicle -2.57426e-014 4.77083e-015
rhumerus -41.7583 5.91896 -86.4414
rradius 42.2228
rwrist -0.407076
rhand -11.1771 -2.53744
rfingers 7.12502
rthumb 14.8499 -31.9853
lclavicle -2.57426e-014 4.77083e-015
lhumerus -32.3483 -13.7563 82.6716
lradius 32.6451
lwrist 7.7636
lhand -6.51928 -9.8117
lfingers 7.12502
lthumb 19.3331 19.2473
rfemur -9.74097 -5.17689 25.3752
rtibia 32.3728
rfoot -24.8458 -17.8884
rtoes -3.78115
lfemur -9.97918 3.62048 -14.033
ltibia 29.601
lfoot -20.2165 0.529229
ltoes -6.2193
683
root 9.0608 16.7966 41.2794 175.013 -52.8195 -171.901
lowerback -0.827838 0.603317 5.57337
upperback 4.53942 0.514312 -0.382039
thorax 5.24269 0.455769 -3.498
lowerneck -8.84017 0.360662 0.63798
upperneck 6.17147 -0.483948 8.51638
head 3.65181 0.0727861 2.71853
rclavicle 7.49418e-014 -8.34896e-015
rhumerus -41.7453 6.01866 -86.4387
rradius 42.2062
rwrist -0.446473
rhand -11.2902 -2.52457
rfingers 7.12502
rthumb 14.741 -31.9804
lclavicle 7.49418e-014 -8.34896e-015
lhumerus -32.3491 -13.686 82.6887
lradius 32.6043
lwrist 7.73391
lhand -6.61533 -9.73722
lfingers 7.12502
lthumb 19.2407 19.331
rfemur -9.74624 -5.18767 25.3442
rtibia 32.3742
rfoot -24.8649 -17.8763
rtoes -3.71941
lfemur -9.97701 3.61976 -14.0585
ltibia 29.5935
lfoot -20.1948 0.507836
ltoes -6.33718
684
root 9.06052 16.7965 41.2809 175.028 -52.8047 -171.903
lowerback -0.814062 0.60534 5.59526
upperback 4.50101 0.521591 -0.415213
thorax 5.19581 0.459817 -3.5447
lowerneck -8.76485 0.39161 0.656194
upperneck 6.17935 -0.4579 8.63401
head 3.64021 0.0874226 2.75671
rclavicle -1.20662e-013 2.26615e-014
rhumerus -41.805 5.97746 -86.4913
rradius 42.2097
rwrist -0.411582
rhand -11.4122 -2.49598
rfingers 7.12502
rthumb 14.6233 -31.9604
lclavicle -1.20662e-013 2.26615e-014
lhumerus -32.4553 -13.7778 82.6681
lradius 32.6632
lwrist 7.79785
lhand -6.52461 -9.79834
lfingers 7.12502
lthumb 19.328 19.2611
rfemur -9.76502 -5.17501 25.3426
rtibia 32.3796
rfoot -24.849 -17.8672
rtoes -3.73332
lfemur -9.98769 3.60635 -14.0615
ltibia 29.588
lfoot -20.2276 0.55307
ltoes -6.49487
685
root 9.05892 16.7973 41.2812 175.043 -52.8221 -171.949
lowerback -0.807419 0.595342 5.55314
upperback 4.51078 0.509538 -0.41722
thorax 5.2002 0.452252 -3.5238
lowerneck -8.80301 0.384928 0.565015
upperneck 6.21191 -0.466236 8.70492
head 3.66144 0.0855093 2.79938
rclavicle -1.65985e-014 -2.38542e-015
rhumerus -41.7962 6.01937 -86.512
rradius 42.197
rwrist -0.460254
rhand -11.1934 -2.53171
rfingers 7.12502
rthumb 14.8342 -31.9807
lclavicle -1.65985e-014 -2.38542e-015
lhumerus -32.47 -13.7808 82.6695
lradius 32.6647
lwrist 7.78958
lhand -6.64346 -9.69992
lfingers 7.12502
lthumb 19.2137 19.371
rfemur -9.73121 -5.18604 25.304
rtibia 32.3816
rfoot -24.8521 -17.8863
rtoes -3.8239
lfemur -9.95586 3.57999 -14.0951
ltibia 29.5888
lfoot -20.2482 0.475244
ltoes -5.89876
686
root 9.0581 16.7959 41.2827 175.047 -52.8169 -171.955
lowerback -0.807805 0.605418 5.55329
upperback 4.50763 0.523376 -0.420116
thorax 5.19857 0.459166 -3.52615
lowerneck -8.74806 0.376438 0.632249
upperneck 6.1634 -0.466925 8.58704
head 3.63116 0.0805881 2.74364
rclavicle -8.84592e-015 -3.97569e-015
rhumerus -41.782 5.99449 -86.5041
rradius 42.1753
rwrist -0.484337
rhand -11.1649 -2.54179
rfingers 7.12502
rthumb 14.8616 -31.9888
lclavicle -8.84592e-015 -3.97569e-015
lhumerus -32.5031 -13.889 82.7131
lradius 32.7141
lwrist 7.87975
lhand -6.59689 -9.69178
lfingers 7.12502
lthumb 19.2585 19.3746
rfemur -9.73748 -5.22707 25.2869
rtibia 32.3866
rfoot -24.8431 -17.8383
rtoes -3.78261
lfemur -9.95858 3.62446 -14.1027
ltibia 29.597
lfoot -20.2371 0.434156
ltoes -5.88401
687
root 9.05791 16.7959 41.2833 174.969 -52.7872 -171.872
lowerback -0.800282 0.611699 5.58204
upperback 4.5203 0.5287 -0.393835
thorax 5.20853 0.46251 -3.51459
lowerneck -8.78249 0.384093 0.647872
upperneck 6.19477 -0.471356 8.6554
head 3.65016 0.0820224 2.76558
rclavicle 3.62782e-014 -6.36111e-015
rhumerus -41.7854 5.97728 -86.4992
rradius 42.1883
rwrist -0.436808
rhand -11.135 -2.52218
rfingers 7.12502
rthumb 14.8904 -31.967
lclavicle 3.62782e-014 -6.36111e-015
lhumerus -32.456 -13.8464 82.7153
lradius 32.6685
lwrist 7.84855
lhand -6.65464 -9.70766
lfingers 7.12502
lthumb 19.2029 19.3643
rfemur -9.72514 -5.21846 25.3441
rtibia 32.3842
rfoot -24.8167 -17.8421
rtoes -3.86276
lfemur -9.95146 3.62648 -14.0484
ltibia 29.6084
lfoot -20.2275 0.507591
ltoes -6.15189
688
root 9.05826 16.7958 41.2842 174.968 -52.7852 -171.872
lowerback -0.78416 0.614725 5.57317
upperback 4.51119 0.534491 -0.391332
thorax 5.19004 0.464354 -3.50678
lowerneck -8.82998 0.37076 0.485859
upperneck 6.24393 -0.484933 8.76798
head 3.68062 0.0782054 2.83637
rclavicle -3.58806e-014 7.15625e-015
rhumerus -41.7702 6.04601 -86.5056
rradius 42.1638
rwrist -0.475631
rhand -11.1003 -2.53179
rfingers 7.12502
rthumb 14.9239 -31.9742
lclavicle -3.58806e-014 7.15625e-015
lhumerus -32.4979 -13.9276 82.7291
lradius 32.6929
lwrist 7.89613
lhand -6.70844 -9.65316
lfingers 7.12502
lthumb 19.1512 19.4239
rfemur -9.73092 -5.21498 25.3443
rtibia 32.3877
rfoot -24.8183 -17.848
rtoes -3.87273
lfemur -9.96415 3.70666 -14.0434
ltibia 29.6167
lfoot -20.2282 0.432667
ltoes -6.11963
689
root 9.05806 16.7963 41.2856 174.974 -52.7627 -171.852
lowerback -0.79808 0.646636 5.58559
upperback 4.50336 0.576808 -0.396326
thorax 5.19449 0.486198 -3.51657
lowerneck -8.77542 0.344445 0.66857
upperneck 6.17913 -0.51635 8.57817
head 3.64401 0.0575726 2.73169
rclavicle -2.31584e-014 1.23246e-014
rhumerus -41.8176 5.93323 -86.503
rradius 42.193
rwrist -0.44773
rhand -11.1035 -2.52011
rfingers 7.12502
rthumb 14.9208 -31.9627
lclavicle -2.31584e-014 1.23246e-014
lhumerus -32.4905 -14.0046 82.7258
lradius 32.6876
lwrist 7.86822
lhand -6.65122 -9.77708
lfingers 7.12502
lthumb 19.2062 19.2945
rfemur -9.76105 -5.17367 25.3597
rtibia 32.3835
rfoot -24.8017 -17.8639
rtoes -3.8714
lfemur -9.98325 3.68984 -14.0312
ltibia 29.6291
lfoot -20.2575 0.434187
ltoes -5.94179
690
root 9.05739 16.7959 41.2869 174.997 -52.7701 -171.879
lowerback -0.807969 0.624876 5.55336
upperback 4.50719 0.547622 -0.386984
thorax 5.20029 0.470304 -3.49024
lowerneck -8.77105 0.37298 0.631157
upperneck 6.1746 -0.473669 8.59157
head 3.64004 0.0782034 2.74564
rclavicle -3.21037e-014 2.38542e-015
rhumerus -41.8153 5.9942 -86.5066
rradius 42.2015
rwrist -0.447582
rhand -11.1761 -2.49889
rfingers 7.12502
rthumb 14.8509 -31.9467
lclavicle -3.21037e-014 2.38542e-015
lhumerus -32.4875 -13.9373 82.7143
lradius 32.6612
lwrist 7.8547
lhand -6.7008 -9.74462
lfingers 7.12502
lthumb 19.1586 19.3317
rfemur -9.76014 -5.21781 25.3359
rtibia 32.3862
rfoot -24.7998 -17.8511
rtoes -3.98088
lfemur -9.99265 3.68325 -14.0551
ltibia 29.631
lfoot -20.2459 0.433932
ltoes -5.9431
691
root 9.05808 16.7964 41.2873 174.982 -52.7587 -171.861
lowerback -0.785573 0.631199 5.54746
upperback 4.50009 0.557121 -0.370315
thorax 5.18058 0.473655 -3.46914
lowerneck -8.79034 0.353477 0.594721
upperneck 6.19084 -0.495668 8.58538
head 3.6508 0.067521 2.74968
rclavicle 5.42682e-014 -1.63003e-014
rhumerus -41.8089 6.05592 -86.4986
rradius 42.1929
rwrist -0.507324
rhand -11.195 -2.52048
rfingers 7.12502
rthumb 14.8326 -31.9696
lclavicle 5.42682e-014 -1.63003e-014
lhumerus -32.512 -13.9835 82.7552
lradius 32.6775
lwrist 7.89234
lhand -6.71423 -9.77725
lfingers 7.12502
lthumb 19.1456 19.3004
rfemur -9.76248 -5.15608 25.3533
rtibia 32.3833
rfoot -24.7984 -17.8847
rtoes -3.87005
lfemur -9.99391 3.69394 -14.042
ltibia 29.637
lfoot -20.2157 0.464425
ltoes -6.23556
692
root 9.05674 16.7963 41.2886 175 -52.7567 -171.876
lowerback -0.810201 0.621124 5.51599
upperback 4.50741 0.54204 -0.352462
thorax 5.1999 0.464991 -3.43347
lowerneck -8.75579 0.371789 0.630537
upperneck 6.15806 -0.464965 8.52449
head 3.62974 0.0799748 2.72226
rclavicle 6.21202e-014 -9.54166e-015
rhumerus -41.8005 6.10596 -86.4766
rradius 42.2049
rwrist -0.506393
rhand -11.0168 -2.52382
rfingers 7.12502
rthumb 15.0043 -31.9602
lclavicle 6.21202e-014 -9.54166e-015
lhumerus -32.4905 -13.9198 82.7736
lradius 32.6461
lwrist 7.89344
lhand -6.54974 -9.8321
lfingers 7.12502
lthumb 19.3038 19.2298
rfemur -9.76986 -5.19419 25.3332
rtibia 32.3846
rfoot -24.7942 -17.8457
rtoes -3.88238
lfemur -10.0072 3.75469 -14.0543
ltibia 29.6393
lfoot -20.2463 0.454497
ltoes -6.45645
